# xmcd
#
# Track frame offsets:
#	150
#	22767
#	43475
#	62454
#	83303
#	99878
#	121329
#	140877
#	160777
#	180140
#	200632
#	221566
#
# Disc length: 3184 seconds
#
# Revision: 0
# Processed by: cddbd v1.5.2PL0 Copyright (c) Steve Scherf et al.
# Submitted via: EZCDAudioConverter 7.1.7.1
#
DISCID=950c6e0c
DTITLE=美宝儿 - 爱情鸟 Dts-Es6.1
DYEAR=2006
DGENRE=
TTITLE0=窗前的一枝红玫瑰
TTITLE1=男孩看见野玫瑰
TTITLE2=可爱的玫瑰花
TTITLE3=夜玫瑰
TTITLE4=心中的玫瑰
TTITLE5=送我一朵玫瑰花
TTITLE6=黄色的玫瑰
TTITLE7=玫瑰花
TTITLE8=摘一束玫瑰送与你
TTITLE9=可爱的一朵玫瑰
TTITLE10=玫瑰香
TTITLE11=我心若玫瑰
EXTD=
EXTT0=
EXTT1=
EXTT2=
EXTT3=
EXTT4=
EXTT5=
EXTT6=
EXTT7=
EXTT8=
EXTT9=
EXTT10=
EXTT11=
PLAYORDER=
